<svg id="visual" viewBox="0 0 1920 1080" width="1920" height="1080" xmlns="http://www.w3.org/2000/svg" xmlns:xlink="http://www.w3.org/1999/xlink" version="1.1"><rect x="0" y="0" width="1920" height="1080" fill="#ffffff"></rect><defs><linearGradient id="grad1_0" x1="43.8%" y1="0%" x2="100%" y2="100%"><stop offset="14.444444444444446%" stop-color="#ffffff" stop-opacity="1"></stop><stop offset="85.55555555555554%" stop-color="#ffffff" stop-opacity="1"></stop></linearGradient></defs><defs><linearGradient id="grad2_0" x1="0%" y1="0%" x2="56.3%" y2="100%"><stop offset="14.444444444444446%" stop-color="#ffffff" stop-opacity="1"></stop><stop offset="85.55555555555554%" stop-color="#ffffff" stop-opacity="1"></stop></linearGradient></defs><g transform="translate(1920, 0)"><path d="M0 324C-43.8 321.3 -87.6 318.6 -124 299.3C-160.4 280.1 -189.4 244.4 -210 210C-230.6 175.7 -242.9 142.7 -260.5 107.9C-278.1 73.1 -301.1 36.6 -324 0L0 0Z" fill="#5eb6f4"></path></g><g transform="translate(0, 1080)"><path d="M0 -324C38.5 -304.7 77 -285.5 110.2 -266.1C143.4 -246.7 171.3 -227.1 205.1 -205.1C238.8 -183 278.5 -158.6 299.3 -124C320.1 -89.4 322.1 -44.7 324 0L0 0Z" fill="#5eb6f4"></path></g></svg>