<svg xmlns="http://www.w3.org/2000/svg" xmlns:xlink="http://www.w3.org/1999/xlink" id="visual" viewBox="0 0 1920 300" width="1920" height="300" version="1.1" transform="matrix(1, 0, 0, -1, 0, 0)"><rect x="0" y="0" width="1920" height="300" fill="#fffffd"/><path d="M0 134L45.7 121.5C91.3 109 182.7 84 274.2 85.8C365.7 87.7 457.3 116.3 548.8 118.5C640.3 120.7 731.7 96.3 823 95.7C914.3 95 1005.7 118 1097 130.3C1188.3 142.7 1279.7 144.3 1371.2 143.2C1462.7 142 1554.3 138 1645.8 126.3C1737.3 114.7 1828.7 95.3 1874.3 85.7L1920 76L1920 301L1874.3 301C1828.7 301 1737.3 301 1645.8 301C1554.3 301 1462.7 301 1371.2 301C1279.7 301 1188.3 301 1097 301C1005.7 301 914.3 301 823 301C731.7 301 640.3 301 548.8 301C457.3 301 365.7 301 274.2 301C182.7 301 91.3 301 45.7 301L0 301Z" fill="#5eb6f4"/><path d="M0 112L45.7 117.5C91.3 123 182.7 134 274.2 145.3C365.7 156.7 457.3 168.3 548.8 169.8C640.3 171.3 731.7 162.7 823 163.3C914.3 164 1005.7 174 1097 174.3C1188.3 174.7 1279.7 165.3 1371.2 162.8C1462.7 160.3 1554.3 164.7 1645.8 154.7C1737.3 144.7 1828.7 120.3 1874.3 108.2L1920 96L1920 301L1874.3 301C1828.7 301 1737.3 301 1645.8 301C1554.3 301 1462.7 301 1371.2 301C1279.7 301 1188.3 301 1097 301C1005.7 301 914.3 301 823 301C731.7 301 640.3 301 548.8 301C457.3 301 365.7 301 274.2 301C182.7 301 91.3 301 45.7 301L0 301Z" fill="#61c2ed"/><path d="M0 216L45.7 207.7C91.3 199.3 182.7 182.7 274.2 173.2C365.7 163.7 457.3 161.3 548.8 162.7C640.3 164 731.7 169 823 175.7C914.3 182.3 1005.7 190.7 1097 195C1188.3 199.3 1279.7 199.7 1371.2 192.3C1462.7 185 1554.3 170 1645.8 160C1737.3 150 1828.7 145 1874.3 142.5L1920 140L1920 301L1874.3 301C1828.7 301 1737.3 301 1645.8 301C1554.3 301 1462.7 301 1371.2 301C1279.7 301 1188.3 301 1097 301C1005.7 301 914.3 301 823 301C731.7 301 640.3 301 548.8 301C457.3 301 365.7 301 274.2 301C182.7 301 91.3 301 45.7 301L0 301Z" fill="#73cce4"/><path d="M0 223L45.7 222.7C91.3 222.3 182.7 221.7 274.2 223.2C365.7 224.7 457.3 228.3 548.8 227.2C640.3 226 731.7 220 823 214C914.3 208 1005.7 202 1097 204.2C1188.3 206.3 1279.7 216.7 1371.2 226C1462.7 235.3 1554.3 243.7 1645.8 242.8C1737.3 242 1828.7 232 1874.3 227L1920 222L1920 301L1874.3 301C1828.7 301 1737.3 301 1645.8 301C1554.3 301 1462.7 301 1371.2 301C1279.7 301 1188.3 301 1097 301C1005.7 301 914.3 301 823 301C731.7 301 640.3 301 548.8 301C457.3 301 365.7 301 274.2 301C182.7 301 91.3 301 45.7 301L0 301Z" fill="#8cd4dc"/><path d="M0 281L45.7 276.2C91.3 271.3 182.7 261.7 274.2 260.8C365.7 260 457.3 268 548.8 265.3C640.3 262.7 731.7 249.3 823 244.8C914.3 240.3 1005.7 244.7 1097 245.7C1188.3 246.7 1279.7 244.3 1371.2 241.2C1462.7 238 1554.3 234 1645.8 237.3C1737.3 240.7 1828.7 251.3 1874.3 256.7L1920 262L1920 301L1874.3 301C1828.7 301 1737.3 301 1645.8 301C1554.3 301 1462.7 301 1371.2 301C1279.7 301 1188.3 301 1097 301C1005.7 301 914.3 301 823 301C731.7 301 640.3 301 548.8 301C457.3 301 365.7 301 274.2 301C182.7 301 91.3 301 45.7 301L0 301Z" fill="#a7dbd8"/></svg>